<?xml version="1.0" encoding="UTF-8"?>
<svg xmlns="http://www.w3.org/2000/svg" viewBox="0 0 1391.68 1148.65">
  <defs>
    <style>
      .cls-1 {
        opacity: .66;
        stroke: #f5f5f5;
      }

      .cls-1, .cls-2 {
        fill: none;
        stroke-linecap: round;
        stroke-linejoin: round;
        stroke-width: 21px;
      }

      .cls-2 {
        opacity: .33;
        stroke: #939598;
      }

      .cls-3 {
        fill: #f5f5f5;
      }

      .cls-4 {
        fill: #e65d25;
      }

      .cls-5 {
        fill: #2f70af;
      }

      .cls-6 {
        fill: #00457d;
      }
    </style>
  </defs>


  <g id="ring_internal" data-name="ring internal">
    <path class="cls-5" d="m851.27,1066.33c-103.65,0-201.09-40.36-274.38-113.65-73.29-73.29-113.65-170.74-113.65-274.38s40.36-201.09,113.65-274.38c73.29-73.29,170.73-113.65,274.38-113.65s201.09,40.36,274.38,113.65c73.29,73.29,113.65,170.73,113.65,274.38s-40.36,201.09-113.65,274.38c-73.29,73.29-170.74,113.65-274.38,113.65Zm0-711.56c-178.39,0-323.52,145.13-323.52,323.52s145.13,323.52,323.52,323.52,323.52-145.13,323.52-323.52-145.13-323.52-323.52-323.52Z"/>
  </g>
  <g id="ring_external" data-name="ring external">
    <path class="cls-6" d="m851.27,1093.9c-111.01,0-215.38-43.23-293.87-121.73-78.5-78.5-121.73-182.86-121.73-293.87s43.23-215.38,121.73-293.87c78.5-78.5,182.86-121.73,293.87-121.73s215.38,43.23,293.87,121.73c78.5,78.5,121.73,182.86,121.73,293.87s-43.23,215.38-121.73,293.87c-78.5,78.5-182.86,121.73-293.87,121.73Zm0-799.6c-211.74,0-384,172.26-384,384s172.26,384,384,384,384-172.26,384-384-172.26-384-384-384Z"/>
  </g>
  <g id="butt">
    <rect class="cls-6" x="798.78" y="201.62" width="107.51" height="66.98"/>
    <path class="cls-6" d="m790.56,131.72h123.95c11.59,0,21,9.41,21,21v74.38c0,4.42-3.58,8-8,8h-149.95c-4.42,0-8-3.58-8-8v-74.38c0-11.59,9.41-21,21-21Z"/>
    <path class="cls-6" d="m536.36,338.7h25.85c22.53,0,40.83,18.29,40.83,40.83v26.15h-107.51v-26.15c0-22.53,18.29-40.83,40.83-40.83Z" transform="translate(-108.03 462.64) rotate(-41.96)"/>
    <path class="cls-6" d="m1095.33,338.7h107.51v26.15c0,22.53-18.29,40.83-40.83,40.83h-25.85c-22.53,0-40.83-18.29-40.83-40.83v-26.15h0Z" transform="translate(1754.78 1417.2) rotate(-138.04)"/>
  </g>
  <g id="Blicks">
    <path class="cls-1" d="m902.48,333.22c-186.32-33.1-363.39,88.25-395.91,271.31"/>
    <path class="cls-2" d="m815.8,1026.5c174.47,30.99,341.78-91,374.07-272.75"/>
  </g>
</svg>