<svg width="16" height="21" viewBox="0 0 16 21" fill="none" xmlns="http://www.w3.org/2000/svg">
<path d="M15.89 8.55001C15.8069 8.3851 15.6798 8.24642 15.5227 8.14934C15.3656 8.05226 15.1847 8.00057 15 8.00001H10V2.00001C10.0107 1.7807 9.94898 1.56394 9.82427 1.38321C9.69957 1.20248 9.51885 1.06782 9.31 1.00001C9.10923 0.933956 8.89268 0.933213 8.69146 0.997892C8.49024 1.06257 8.31468 1.18934 8.19 1.36001L0.189999 12.36C0.0897645 12.5049 0.0295775 12.6737 0.0155294 12.8493C0.00148127 13.0249 0.0340707 13.2011 0.109999 13.36C0.179921 13.5418 0.301387 13.6991 0.459489 13.8128C0.61759 13.9265 0.805447 13.9916 0.999999 14H6V20C6.00015 20.2109 6.06697 20.4163 6.19089 20.5869C6.31482 20.7576 6.48951 20.8846 6.69 20.95C6.79047 20.9812 6.89483 20.998 7 21C7.15778 21.0004 7.31343 20.9635 7.45421 20.8922C7.59499 20.821 7.71691 20.7174 7.81 20.59L15.81 9.59001C15.9177 9.44081 15.9822 9.26477 15.9963 9.08127C16.0105 8.89777 15.9737 8.71394 15.89 8.55001ZM8 16.92V13C8 12.7348 7.89464 12.4804 7.70711 12.2929C7.51957 12.1054 7.26521 12 7 12H3L8 5.08001V9.00001C8 9.26523 8.10536 9.51958 8.29289 9.70712C8.48043 9.89466 8.73478 10 9 10H13L8 16.92Z" fill="#EFCB0C"/>
</svg>
