<svg width="23" height="18" viewBox="0 0 23 18" fill="none" xmlns="http://www.w3.org/2000/svg">
<path d="M11.8 9.22C12.3336 8.75813 12.7616 8.18688 13.0549 7.54502C13.3482 6.90316 13.5 6.20571 13.5 5.5C13.5 4.17392 12.9732 2.90215 12.0355 1.96447C11.0979 1.02678 9.82608 0.5 8.5 0.5C7.17392 0.5 5.90215 1.02678 4.96447 1.96447C4.02678 2.90215 3.5 4.17392 3.5 5.5C3.49999 6.20571 3.6518 6.90316 3.94513 7.54502C4.23845 8.18688 4.66642 8.75813 5.2 9.22C3.80014 9.85388 2.61247 10.8775 1.77898 12.1685C0.945495 13.4596 0.501472 14.9633 0.5 16.5C0.5 16.7652 0.605357 17.0196 0.792893 17.2071C0.98043 17.3946 1.23478 17.5 1.5 17.5C1.76522 17.5 2.01957 17.3946 2.20711 17.2071C2.39464 17.0196 2.5 16.7652 2.5 16.5C2.5 14.9087 3.13214 13.3826 4.25736 12.2574C5.38258 11.1321 6.9087 10.5 8.5 10.5C10.0913 10.5 11.6174 11.1321 12.7426 12.2574C13.8679 13.3826 14.5 14.9087 14.5 16.5C14.5 16.7652 14.6054 17.0196 14.7929 17.2071C14.9804 17.3946 15.2348 17.5 15.5 17.5C15.7652 17.5 16.0196 17.3946 16.2071 17.2071C16.3946 17.0196 16.5 16.7652 16.5 16.5C16.4985 14.9633 16.0545 13.4596 15.221 12.1685C14.3875 10.8775 13.1999 9.85388 11.8 9.22ZM8.5 8.5C7.90666 8.5 7.32664 8.32405 6.83329 7.99441C6.33994 7.66476 5.95542 7.19623 5.72836 6.64805C5.5013 6.09987 5.44189 5.49667 5.55764 4.91473C5.6734 4.33279 5.95912 3.79824 6.37868 3.37868C6.79824 2.95912 7.33279 2.6734 7.91473 2.55764C8.49667 2.44189 9.09987 2.5013 9.64805 2.72836C10.1962 2.95542 10.6648 3.33994 10.9944 3.83329C11.3241 4.32664 11.5 4.90666 11.5 5.5C11.5 6.29565 11.1839 7.05871 10.6213 7.62132C10.0587 8.18393 9.29565 8.5 8.5 8.5ZM18.24 8.82C18.88 8.09933 19.298 7.20905 19.4438 6.25634C19.5896 5.30362 19.4569 4.32907 19.0618 3.45C18.6666 2.57093 18.0258 1.8248 17.2165 1.30142C16.4071 0.77805 15.4638 0.499742 14.5 0.5C14.2348 0.5 13.9804 0.605357 13.7929 0.792893C13.6054 0.98043 13.5 1.23478 13.5 1.5C13.5 1.76522 13.6054 2.01957 13.7929 2.20711C13.9804 2.39464 14.2348 2.5 14.5 2.5C15.2956 2.5 16.0587 2.81607 16.6213 3.37868C17.1839 3.94129 17.5 4.70435 17.5 5.5C17.4986 6.02524 17.3593 6.5409 17.0961 6.99542C16.8328 7.44994 16.4549 7.82738 16 8.09C15.8517 8.17552 15.7279 8.29766 15.6404 8.44474C15.5528 8.59182 15.5045 8.7589 15.5 8.93C15.4958 9.09976 15.5349 9.2678 15.6137 9.41826C15.6924 9.56872 15.8081 9.69665 15.95 9.79L16.34 10.05L16.47 10.12C17.6754 10.6917 18.6923 11.596 19.401 12.7263C20.1096 13.8566 20.4805 15.1659 20.47 16.5C20.47 16.7652 20.5754 17.0196 20.7629 17.2071C20.9504 17.3946 21.2048 17.5 21.47 17.5C21.7352 17.5 21.9896 17.3946 22.1771 17.2071C22.3646 17.0196 22.47 16.7652 22.47 16.5C22.4782 14.9654 22.0938 13.4543 21.3535 12.1101C20.6131 10.7659 19.5413 9.63331 18.24 8.82Z" fill="#DCDCDC"/>
</svg>
