<svg width="21" height="20" viewBox="0 0 21 20" fill="none" xmlns="http://www.w3.org/2000/svg">
<path d="M19.5 16H17.5V13C17.5 12.7348 17.3946 12.4804 17.2071 12.2929C17.0196 12.1053 16.7652 12 16.5 12H11.5V9.28999L12.63 9.87999C12.7948 9.9662 12.9804 10.0047 13.1658 9.99129C13.3513 9.97784 13.5294 9.91293 13.68 9.80385C13.8307 9.69477 13.9479 9.54585 14.0185 9.37382C14.0892 9.20178 14.1105 9.01345 14.08 8.82999L13.68 6.45999L15.4 4.76999C15.5303 4.64277 15.6233 4.4824 15.6692 4.30617C15.715 4.12994 15.7118 3.94455 15.66 3.76999C15.602 3.59226 15.4954 3.43434 15.3522 3.31415C15.2091 3.19395 15.0351 3.1163 14.85 3.08999L12.5 2.71999L11.4 0.55999C11.3181 0.390919 11.1903 0.248332 11.0311 0.148564C10.8719 0.0487953 10.6879 -0.00411987 10.5 -0.00411987C10.3121 -0.00411987 10.1281 0.0487953 9.96891 0.148564C9.80974 0.248332 9.68188 0.390919 9.6 0.55999L8.5 2.71999L6.11 3.06999C5.92492 3.0963 5.75092 3.17395 5.60775 3.29415C5.46458 3.41434 5.35796 3.57226 5.3 3.74999C5.24819 3.92455 5.24502 4.10994 5.29084 4.28617C5.33666 4.4624 5.42973 4.62277 5.56 4.74999L7.32 6.45999L6.92 8.82999C6.88952 9.01345 6.9108 9.20178 6.98145 9.37382C7.0521 9.54585 7.16933 9.69477 7.31996 9.80385C7.4706 9.91293 7.64866 9.97784 7.83415 9.99129C8.01964 10.0047 8.20521 9.9662 8.37 9.87999L9.5 9.28999V12H4.5C4.23478 12 3.98043 12.1053 3.79289 12.2929C3.60536 12.4804 3.5 12.7348 3.5 13V16H1.5C1.23478 16 0.98043 16.1053 0.792893 16.2929C0.605357 16.4804 0.5 16.7348 0.5 17V19C0.5 19.2652 0.605357 19.5196 0.792893 19.7071C0.98043 19.8946 1.23478 20 1.5 20C1.76522 20 2.01957 19.8946 2.20711 19.7071C2.39464 19.5196 2.5 19.2652 2.5 19V18H6.5V19C6.5 19.2652 6.60536 19.5196 6.79289 19.7071C6.98043 19.8946 7.23478 20 7.5 20C7.76522 20 8.01957 19.8946 8.20711 19.7071C8.39464 19.5196 8.5 19.2652 8.5 19V17C8.5 16.7348 8.39464 16.4804 8.20711 16.2929C8.01957 16.1053 7.76522 16 7.5 16H5.5V14H15.5V16H13.5C13.2348 16 12.9804 16.1053 12.7929 16.2929C12.6054 16.4804 12.5 16.7348 12.5 17V19C12.5 19.2652 12.6054 19.5196 12.7929 19.7071C12.9804 19.8946 13.2348 20 13.5 20C13.7652 20 14.0196 19.8946 14.2071 19.7071C14.3946 19.5196 14.5 19.2652 14.5 19V18H18.5V19C18.5 19.2652 18.6054 19.5196 18.7929 19.7071C18.9804 19.8946 19.2348 20 19.5 20C19.7652 20 20.0196 19.8946 20.2071 19.7071C20.3946 19.5196 20.5 19.2652 20.5 19V17C20.5 16.7348 20.3946 16.4804 20.2071 16.2929C20.0196 16.1053 19.7652 16 19.5 16ZM10.5 6.62999C10.3359 6.63081 10.1744 6.67202 10.03 6.74999L9.23 7.16999L9.38 6.26999C9.40624 6.1108 9.39357 5.94761 9.34307 5.79438C9.29257 5.64114 9.20574 5.5024 9.09 5.38999L8.44 4.74999L9.34 4.61999C9.50101 4.59848 9.65436 4.53807 9.78678 4.44398C9.9192 4.34989 10.0267 4.22496 10.1 4.07999L10.5 3.25999L10.9 4.07999C10.9733 4.22496 11.0808 4.34989 11.2132 4.44398C11.3456 4.53807 11.499 4.59848 11.66 4.61999L12.56 4.74999L11.91 5.38999C11.7943 5.5024 11.7074 5.64114 11.6569 5.79438C11.6064 5.94761 11.5938 6.1108 11.62 6.26999L11.77 7.16999L10.97 6.74999C10.8256 6.67202 10.6641 6.63081 10.5 6.62999Z" fill="#DCDCDC"/>
</svg>
