<svg width="20" height="20" viewBox="0 0 20 20" fill="none" xmlns="http://www.w3.org/2000/svg">
<path d="M18.7 0.180265C18.0199 0.063127 17.3313 0.0028317 16.6412 4.12726e-06C14.2868 -0.00192607 11.9814 0.673206 10 1.94492C8.01348 0.689903 5.70851 0.0313418 3.35881 0.0474411C2.66874 0.0502687 1.9801 0.110564 1.30004 0.227702C1.07729 0.266106 0.875558 0.382782 0.731191 0.556719C0.586823 0.730655 0.509302 0.950423 0.512588 1.17644V12.5613C0.510556 12.7007 0.539273 12.8389 0.596694 12.9659C0.654115 13.093 0.738831 13.2058 0.844812 13.2964C0.950793 13.387 1.07544 13.4531 1.20987 13.49C1.34431 13.5269 1.48523 13.5338 1.62262 13.5101C2.98218 13.2747 4.3751 13.3137 5.71934 13.6249C7.06358 13.9362 8.33195 14.5132 9.44973 15.3222L9.56358 15.3886H9.66794C9.77316 15.4324 9.88601 15.455 10 15.455C10.114 15.455 10.2268 15.4324 10.3321 15.3886H10.4364L10.5503 15.3222C11.6603 14.4951 12.925 13.8994 14.2695 13.5702C15.614 13.241 17.0109 13.1851 18.3774 13.4057C18.5148 13.4294 18.6557 13.4226 18.7901 13.3856C18.9246 13.3487 19.0492 13.2826 19.1552 13.192C19.2612 13.1014 19.3459 12.9886 19.4033 12.8616C19.4607 12.7345 19.4894 12.5964 19.4874 12.457V1.07208C19.4775 0.855914 19.3941 0.649617 19.2508 0.487408C19.1076 0.325199 18.9132 0.216826 18.7 0.180265ZM9.05126 12.789C7.29598 11.8656 5.34217 11.3837 3.35881 11.3849C3.04573 11.3849 2.73264 11.3849 2.41007 11.3849V1.89749C2.72606 1.87928 3.04283 1.87928 3.35881 1.89749C5.38284 1.89525 7.3627 2.48921 9.05126 3.60522V12.789ZM17.5899 11.4228C17.2674 11.4228 16.9543 11.4228 16.6412 11.4228C14.6578 11.4216 12.704 11.9036 10.9487 12.827V3.60522C12.6373 2.48921 14.6172 1.89525 16.6412 1.89749C16.9572 1.87928 17.2739 1.87928 17.5899 1.89749V11.4228ZM18.7 15.3601C18.0199 15.243 17.3313 15.1827 16.6412 15.1799C14.2868 15.1779 11.9814 15.8531 10 17.1248C8.01857 15.8531 5.71324 15.1779 3.35881 15.1799C2.66874 15.1827 1.9801 15.243 1.30004 15.3601C1.17654 15.3797 1.05814 15.4235 0.95163 15.4891C0.845124 15.5546 0.752621 15.6405 0.67944 15.7419C0.606259 15.8433 0.553845 15.9582 0.52521 16.0799C0.496575 16.2016 0.492286 16.3278 0.512588 16.4512C0.560802 16.6975 0.704699 16.9148 0.912758 17.0553C1.12082 17.1957 1.37607 17.248 1.62262 17.2007C2.98218 16.9653 4.3751 17.0043 5.71934 17.3156C7.06358 17.6268 8.33195 18.2038 9.44973 19.0128C9.61041 19.1272 9.80275 19.1887 10 19.1887C10.1972 19.1887 10.3896 19.1272 10.5503 19.0128C11.6681 18.2038 12.9364 17.6268 14.2807 17.3156C15.6249 17.0043 17.0178 16.9653 18.3774 17.2007C18.6239 17.248 18.8792 17.1957 19.0872 17.0553C19.2953 16.9148 19.4392 16.6975 19.4874 16.4512C19.5077 16.3278 19.5034 16.2016 19.4748 16.0799C19.4462 15.9582 19.3937 15.8433 19.3206 15.7419C19.2474 15.6405 19.1549 15.5546 19.0484 15.4891C18.9419 15.4235 18.8235 15.3797 18.7 15.3601Z" fill="#DCDCDC"/>
</svg>
