<svg width="21" height="20" viewBox="0 0 21 20" fill="none" xmlns="http://www.w3.org/2000/svg">
<path d="M20.5 7.66999C20.4368 7.48708 20.322 7.32642 20.1693 7.20749C20.0167 7.08857 19.8328 7.01649 19.64 6.99999L13.95 6.16999L11.4 0.999993C11.3181 0.830922 11.1903 0.688335 11.0311 0.588566C10.8719 0.488798 10.6879 0.435883 10.5 0.435883C10.3121 0.435883 10.1281 0.488798 9.96891 0.588566C9.80974 0.688335 9.68188 0.830922 9.6 0.999993L7.05 6.15999L1.36 6.99999C1.17492 7.0263 1.00092 7.10396 0.857751 7.22415C0.714577 7.34435 0.60796 7.50227 0.55 7.67999C0.496945 7.85367 0.492184 8.03851 0.536228 8.21469C0.580272 8.39086 0.671458 8.55172 0.8 8.67999L4.93 12.68L3.93 18.36C3.8943 18.5475 3.91299 18.7412 3.98387 18.9184C4.05475 19.0956 4.17485 19.2489 4.33 19.36C4.48122 19.4681 4.65957 19.5319 4.84505 19.5443C5.03052 19.5566 5.21577 19.5171 5.38 19.43L10.5 16.76L15.6 19.44C15.7403 19.5192 15.8989 19.5605 16.06 19.56C16.2718 19.5607 16.4784 19.4942 16.65 19.37C16.8051 19.2589 16.9252 19.1056 16.9961 18.9284C17.067 18.7512 17.0857 18.5575 17.05 18.37L16.05 12.69L20.18 8.68999C20.3244 8.56767 20.4311 8.4069 20.4877 8.22634C20.5444 8.04579 20.5486 7.85287 20.5 7.66999ZM14.35 11.67C14.2327 11.7834 14.145 11.9238 14.0944 12.079C14.0439 12.2341 14.0321 12.3992 14.06 12.56L14.78 16.75L11.02 14.75C10.8753 14.673 10.7139 14.6327 10.55 14.6327C10.3861 14.6327 10.2247 14.673 10.08 14.75L6.32 16.75L7.04 12.56C7.06794 12.3992 7.05611 12.2341 7.00557 12.079C6.95502 11.9238 6.86728 11.7834 6.75 11.67L3.75 8.66999L7.96 8.05999C8.122 8.03746 8.276 7.97553 8.4085 7.87964C8.541 7.78376 8.64796 7.65683 8.72 7.50999L10.5 3.69999L12.38 7.51999C12.452 7.66683 12.559 7.79376 12.6915 7.88964C12.824 7.98553 12.978 8.04746 13.14 8.06999L17.35 8.67999L14.35 11.67Z" fill="#DCDCDC"/>
</svg>
